o PaperPlane
v 0.000000 0.000000 -0.122971
v 0.123759 0.050256 0.123002
v -0.123759 0.050256 0.123002
v 0.000000 0.020065 0.077737
v 0.000000 -0.029792 0.077737
vt 0.746699 0.878436
vt 0.247238 0.866748
vt 0.746699 0.717552
vt 0.746699 0.063904
vt 0.085003 0.410633
vn -0.343495 0.000000 0.939154
vn 0.343495 0.000000 0.939154
vn -0.202102 0.974507 -0.097422
vn 0.202102 0.974507 -0.097422
vn 0.569871 -0.812828 -0.120651
vn -0.569871 -0.812828 -0.120651
s off
f 5/1/1 2/2/1 4/3/1
f 4/3/2 3/2/2 5/1/2
f 2/2/3 1/4/3 4/3/3
f 4/3/4 1/4/4 3/2/4
f 5/5/5 1/4/5 2/2/5
f 3/2/6 1/4/6 5/5/6
