o Room
v 0.000000 2.560000 0.415304
v 0.000000 -2.560000 0.415304
v 0.000000 2.560000 -0.415304
v 0.000000 -2.560000 -0.415304
v 2.559999 0.421780 0.000000
v 2.559999 -0.421780 0.000000
v -2.559999 0.421780 0.000000
v -2.559999 -0.421780 0.000000
v 2.271997 2.278477 0.000000
v 2.271997 -2.278477 0.000000
v -2.271997 2.278477 0.000000
v -2.271997 -2.278477 0.000000
v 2.271996 0.000000 2.290357
v 2.271996 0.000000 -2.290357
v -2.271996 0.000000 2.290357
v -2.271996 0.000000 -2.290357
v 0.415303 2.560000 0.000000
v 0.415303 -2.560000 0.000000
v -0.415303 2.560000 0.000000
v -0.415303 -2.560000 0.000000
v 0.415303 2.560000 0.415303
v 0.415303 -2.560000 0.415303
v 0.415303 2.560000 -0.415303
v 0.415303 -2.560000 -0.415303
v -0.415303 2.560000 0.415303
v -0.415303 -2.560000 0.415303
v -0.415303 2.560000 -0.415303
v -0.415303 -2.560000 -0.415303
v 0.000000 0.506811 2.559999
v 0.000000 -0.506811 2.559999
v 0.000000 0.506811 -2.559999
v 0.000000 -0.506811 -2.559999
v 0.506811 0.506811 2.559999
v 0.506811 -0.506811 2.559999
v 0.506811 0.506811 -2.559999
v 0.506811 -0.506811 -2.559999
v -0.506811 0.506811 2.559999
v -0.506811 -0.506811 2.559999
v -0.506811 0.506811 -2.559999
v -0.506811 -0.506811 -2.559999
v 2.271996 2.278477 2.290357
v 2.271996 -2.278477 2.290357
v 2.271996 2.278477 -2.290357
v 2.271996 -2.278477 -2.290357
v -2.271996 2.278477 2.290357
v -2.271996 -2.278477 2.290357
v -2.271996 2.278477 -2.290357
v -2.271996 -2.278477 -2.290357
v 0.000000 2.278477 2.290357
v 0.000000 -2.278477 2.290357
v 0.000000 2.278477 -2.290357
v 0.000000 -2.278477 -2.290357
v 2.559999 0.000000 0.421780
v 2.559999 0.000000 -0.421780
v -2.559999 0.000000 0.421780
v -2.559999 0.000000 -0.421780
v 2.559999 0.421780 0.421780
v 2.559999 -0.421780 0.421780
v 2.559999 0.421780 -0.421780
v 2.559999 -0.421780 -0.421780
v -2.559999 0.421780 0.421780
v -2.559999 -0.421780 0.421780
v -2.559999 0.421780 -0.421780
v -2.559999 -0.421780 -0.421780
v 0.506811 0.000000 2.559999
v 0.506811 0.000000 -2.559999
v -0.506811 0.000000 2.559999
v -0.506811 0.000000 -2.559999
v 0.552693 2.278477 0.000000
v 0.552693 -2.278477 0.000000
v -0.552693 2.278477 0.000000
v -0.552693 -2.278477 0.000000
v 2.271025 0.000000 0.544552
v 2.271025 0.000000 -0.544552
v -2.271025 0.000000 0.544552
v -2.271025 0.000000 -0.544552
v 0.000000 0.622606 2.290357
v 0.000000 -0.622606 2.290357
v 0.000000 0.622606 -2.290357
v 0.000000 -0.622606 -2.290357
v 2.271025 0.548939 0.000000
v 2.271025 -0.548939 0.000000
v -2.271025 0.548939 0.000000
v -2.271025 -0.548939 0.000000
v 0.618756 0.622606 2.290357
v 0.618756 -0.622606 2.290357
v 0.618756 0.622606 -2.290357
v 0.618756 -0.622606 -2.290357
v -0.618756 0.622606 2.290357
v -0.618756 -0.622606 2.290357
v -0.618756 0.622606 -2.290357
v -0.618756 -0.622606 -2.290357
v 2.271025 0.548939 0.544552
v 2.271025 -0.548939 0.544552
v 2.271025 0.548939 -0.544552
v 2.271025 -0.548939 -0.544552
v -2.271025 0.548939 0.544552
v -2.271025 -0.548939 0.544552
v -2.271025 0.548939 -0.544552
v -2.271025 -0.548939 -0.544552
v 0.552693 2.278477 0.551729
v 0.552693 -2.278477 0.551729
v 0.552693 2.278477 -0.551729
v 0.552693 -2.278477 -0.551729
v -0.552693 2.278477 0.551729
v -0.552693 -2.278477 0.551729
v -0.552693 2.278477 -0.551729
v -0.552693 -2.278477 -0.551729
v 0.000000 2.278477 0.551729
v 0.000000 -2.278477 0.551729
v 0.000000 2.278477 -0.551729
v 0.000000 -2.278477 -0.551729
v 0.618756 0.000000 2.290357
v 0.618756 0.000000 -2.290357
v -0.618756 0.000000 2.290357
v -0.618756 0.000000 -2.290357
vn 0.000000 -0.000000 -1.000000
vn 0.000000 -0.000000 1.000000
vn -1.000000 0.000562 0.000000
vn -1.000000 -0.000562 0.000000
vn 1.000000 0.000562 0.000000
vn 1.000000 -0.000562 0.000000
vn 0.000000 -1.000000 0.000000
vn 0.000000 1.000000 0.000000
vn -1.000000 0.000000 0.000556
vn -1.000000 0.000000 -0.000556
vn 1.000000 0.000000 0.000556
vn 1.000000 0.000000 -0.000556
vn -1.000000 0.000280 0.000279
vn -1.000000 -0.000280 0.000279
vn -1.000000 0.000280 -0.000279
vn -1.000000 -0.000280 -0.000279
vn 1.000000 0.000280 0.000279
vn 1.000000 -0.000280 0.000279
vn 1.000000 0.000280 -0.000279
vn 1.000000 -0.000280 -0.000279
vn -0.923569 0.000000 -0.383432
vn -0.923569 0.000000 0.383432
vn 0.923569 0.000000 -0.383432
vn 0.923569 0.000000 0.383432
vn -0.402768 -0.915302 0.000000
vn -0.402768 0.915302 0.000000
vn 0.402768 -0.915302 0.000000
vn 0.402768 0.915302 0.000000
vn -0.000001 -0.436091 -0.899903
vn -0.000001 0.436091 -0.899903
vn -0.000001 -0.436091 0.899903
vn -0.000001 0.436091 0.899903
vn 0.000001 -0.436091 -0.899903
vn 0.000001 0.436091 -0.899903
vn 0.000001 -0.436091 0.899903
vn 0.000001 0.436091 0.899903
vn -0.000000 -0.918856 -0.394594
vn -0.000000 0.918856 -0.394594
vn -0.000000 -0.918856 0.394594
vn -0.000000 0.918856 0.394594
vn -0.898691 -0.438582 0.000000
vn -0.898691 0.438582 0.000000
vn 0.898691 -0.438582 0.000000
vn 0.898691 0.438582 0.000000
vn -0.391028 -0.000000 -0.920379
vn -0.391028 -0.000000 0.920379
vn 0.391028 -0.000000 -0.920379
vn 0.391028 -0.000000 0.920379
s off
f 13//1 113//1 85//1
f 86//1 113//1 13//1
f 87//2 114//2 14//2
f 14//2 114//2 88//2
f 89//1 115//1 15//1
f 15//1 115//1 90//1
f 16//2 116//2 91//2
f 92//2 116//2 16//2
f 9//3 81//3 93//3
f 94//4 82//4 10//4
f 95//3 81//3 9//3
f 10//4 82//4 96//4
f 97//5 83//5 11//5
f 12//6 84//6 98//6
f 11//5 83//5 99//5
f 100//6 84//6 12//6
f 101//7 49//7 109//7
f 110//8 50//8 102//8
f 111//7 51//7 103//7
f 104//8 52//8 112//8
f 109//7 49//7 105//7
f 106//8 50//8 110//8
f 107//7 51//7 111//7
f 112//8 52//8 108//8
f 85//1 77//1 49//1
f 50//1 78//1 86//1
f 51//2 79//2 87//2
f 88//2 80//2 52//2
f 49//1 77//1 89//1
f 90//1 78//1 50//1
f 91//2 79//2 51//2
f 52//2 80//2 92//2
f 101//7 69//7 9//7
f 10//8 70//8 102//8
f 9//7 69//7 103//7
f 104//8 70//8 10//8
f 11//7 71//7 105//7
f 106//8 72//8 12//8
f 107//7 71//7 11//7
f 12//8 72//8 108//8
f 93//9 73//9 13//9
f 13//9 73//9 94//9
f 14//10 74//10 95//10
f 96//10 74//10 14//10
f 15//11 75//11 97//11
f 98//11 75//11 15//11
f 99//12 76//12 16//12
f 16//12 76//12 100//12
f 13//1 85//1 49//1
f 13//1 49//1 41//1
f 50//1 86//1 13//1
f 50//1 13//1 42//1
f 51//2 87//2 14//2
f 51//2 14//2 43//2
f 14//2 88//2 52//2
f 14//2 52//2 44//2
f 49//1 89//1 15//1
f 49//1 15//1 45//1
f 15//1 90//1 50//1
f 15//1 50//1 46//1
f 16//2 91//2 51//2
f 16//2 51//2 47//2
f 52//2 92//2 16//2
f 52//2 16//2 48//2
f 9//13 93//13 13//13
f 9//13 13//13 41//13
f 13//14 94//14 10//14
f 13//14 10//14 42//14
f 14//15 95//15 9//15
f 14//15 9//15 43//15
f 10//16 96//16 14//16
f 10//16 14//16 44//16
f 15//17 97//17 11//17
f 15//17 11//17 45//17
f 12//18 98//18 15//18
f 12//18 15//18 46//18
f 11//19 99//19 16//19
f 11//19 16//19 47//19
f 16//20 100//20 12//20
f 16//20 12//20 48//20
f 49//7 101//7 9//7
f 49//7 9//7 41//7
f 10//8 102//8 50//8
f 10//8 50//8 42//8
f 9//7 103//7 51//7
f 9//7 51//7 43//7
f 52//8 104//8 10//8
f 52//8 10//8 44//8
f 11//7 105//7 49//7
f 11//7 49//7 45//7
f 50//8 106//8 12//8
f 50//8 12//8 46//8
f 51//7 107//7 11//7
f 51//7 11//7 47//7
f 12//8 108//8 52//8
f 12//8 52//8 48//8
f 65//21 33//21 85//21
f 65//21 85//21 113//21
f 86//21 34//21 65//21
f 86//21 65//21 113//21
f 87//22 35//22 66//22
f 87//22 66//22 114//22
f 66//22 36//22 88//22
f 66//22 88//22 114//22
f 89//23 37//23 67//23
f 89//23 67//23 115//23
f 67//23 38//23 90//23
f 67//23 90//23 115//23
f 68//24 39//24 91//24
f 68//24 91//24 116//24
f 92//24 40//24 68//24
f 92//24 68//24 116//24
f 5//25 57//25 93//25
f 5//25 93//25 81//25
f 94//26 58//26 6//26
f 94//26 6//26 82//26
f 95//25 59//25 5//25
f 95//25 5//25 81//25
f 6//26 60//26 96//26
f 6//26 96//26 82//26
f 97//27 61//27 7//27
f 97//27 7//27 83//27
f 8//28 62//28 98//28
f 8//28 98//28 84//28
f 7//27 63//27 99//27
f 7//27 99//27 83//27
f 100//28 64//28 8//28
f 100//28 8//28 84//28
f 1//29 21//29 101//29
f 1//29 101//29 109//29
f 102//30 22//30 2//30
f 102//30 2//30 110//30
f 103//31 23//31 3//31
f 103//31 3//31 111//31
f 4//32 24//32 104//32
f 4//32 104//32 112//32
f 1//33 109//33 105//33
f 1//33 105//33 25//33
f 106//34 110//34 2//34
f 106//34 2//34 26//34
f 107//35 111//35 3//35
f 107//35 3//35 27//35
f 4//36 112//36 108//36
f 4//36 108//36 28//36
f 85//37 33//37 29//37
f 85//37 29//37 77//37
f 30//38 34//38 86//38
f 30//38 86//38 78//38
f 31//39 35//39 87//39
f 31//39 87//39 79//39
f 88//40 36//40 32//40
f 88//40 32//40 80//40
f 29//37 37//37 89//37
f 29//37 89//37 77//37
f 90//38 38//38 30//38
f 90//38 30//38 78//38
f 91//39 39//39 31//39
f 91//39 31//39 79//39
f 32//40 40//40 92//40
f 32//40 92//40 80//40
f 101//41 21//41 17//41
f 101//41 17//41 69//41
f 18//42 22//42 102//42
f 18//42 102//42 70//42
f 17//41 23//41 103//41
f 17//41 103//41 69//41
f 104//42 24//42 18//42
f 104//42 18//42 70//42
f 19//43 25//43 105//43
f 19//43 105//43 71//43
f 106//44 26//44 20//44
f 106//44 20//44 72//44
f 107//43 27//43 19//43
f 107//43 19//43 71//43
f 20//44 28//44 108//44
f 20//44 108//44 72//44
f 93//45 57//45 53//45
f 93//45 53//45 73//45
f 53//45 58//45 94//45
f 53//45 94//45 73//45
f 54//46 59//46 95//46
f 54//46 95//46 74//46
f 96//46 60//46 54//46
f 96//46 54//46 74//46
f 55//47 61//47 97//47
f 55//47 97//47 75//47
f 98//47 62//47 55//47
f 98//47 55//47 75//47
f 99//48 63//48 56//48
f 99//48 56//48 76//48
f 56//48 64//48 100//48
f 56//48 100//48 76//48
